<?xml version="1.0" encoding="utf-8"?>
<!-- Generator: Adobe Illustrator 17.1.0, SVG Export Plug-In . SVG Version: 6.00 Build 0)  -->
<!DOCTYPE svg PUBLIC "-//W3C//DTD SVG 1.1//EN" "http://www.w3.org/Graphics/SVG/1.1/DTD/svg11.dtd">
<svg version="1.1" id="Layer_1" xmlns="http://www.w3.org/2000/svg" xmlns:xlink="http://www.w3.org/1999/xlink" x="0px" y="0px"
	 viewBox="0 0 1920 1400" enable-background="new 0 0 1920 1400" xml:space="preserve">
<g>
	<path fill="#F47947" d="M-29.5,50.5c0,0,117.2-47.1,389.8,100.1c0,0,121.2,61.8,198.6,93.4c0,0,109.2,62.2,189.1-13.2
		c0,0,122.3-132.4,293.2,18.4c0,0,141.1,122.9,223-18.2c0,0,39.5-60.8,103.1-58.7c0,0,39.5-0.7,75.8,39c0,0,31.7,36.8,89.5,60.7
		c0,0,103.1,53.1,197.2-69.8c0,0,78.2-129.3,203.2-107.7v228.4l-1952.8,6.7L-29.5,50.5z"/>
	<rect x="-14.6" y="319.7" fill="#F47947" width="1947.6" height="1113.3"/>
</g>
</svg>
